# xmcd CD database file
#
# Track frame offsets:
#	182
#	31782
#	63272
#	90012
#	116170
#	146120
#	177742
#	206605
#	241050
#	267722
#
# Disc length: 3894 seconds
#
# Revision: 2
# Processed by: cddbd v1.5.1PL0 Copyright (c) Steve Scherf et al.
# Submitted via: CDex 1.51
#
DISCID=8c0f340a
DTITLE=Tony Purrone - Set 'em Up
DYEAR=1996
DGENRE=Jazz
TTITLE0=Blues Aloof
TTITLE1=How Deep Is The Ocean
TTITLE2=Wolfbane
TTITLE3=Scott David
TTITLE4=Ah-Leu-Cha
TTITLE5=Remembering The Dream
TTITLE6=Heads Up, Feet Down
TTITLE7=Toy Tune
TTITLE8=Pequonnock Valley Walk
TTITLE9=Sorcerer
EXTD=YEAR: 1996
EXTT0=
EXTT1=
EXTT2=
EXTT3=
EXTT4=
EXTT5=
EXTT6=
EXTT7=
EXTT8=
EXTT9=
PLAYORDER=
